<mxfile host="Electron" modified="2024-03-22T22:59:25.019Z" agent="Mozilla/5.0 (Windows NT 10.0; Win64; x64) AppleWebKit/537.36 (KHTML, like Gecko) draw.io/23.1.5 Chrome/120.0.6099.109 Electron/28.1.0 Safari/537.36" etag="UcGf_NEN4h9MkI7PxLml" version="23.1.5" type="device">
  <diagram name="Страница — 1" id="lb70PDkckFC84eBH2WOn">
    <mxGraphModel dx="1668" dy="744" grid="1" gridSize="10" guides="1" tooltips="1" connect="1" arrows="1" fold="1" page="1" pageScale="1" pageWidth="827" pageHeight="1169" math="0" shadow="0">
      <root>
        <mxCell id="0" />
        <mxCell id="1" parent="0" />
        <mxCell id="1ETvutR-QdiNxrJq1_Db-1" value="" style="shape=umlLifeline;perimeter=lifelinePerimeter;whiteSpace=wrap;html=1;container=1;dropTarget=0;collapsible=0;recursiveResize=0;outlineConnect=0;portConstraint=eastwest;newEdgeStyle={&quot;curved&quot;:0,&quot;rounded&quot;:0};participant=umlActor;fillColor=#d5e8d4;strokeColor=#82b366;" vertex="1" parent="1">
          <mxGeometry x="400" y="280" width="20" height="340" as="geometry" />
        </mxCell>
        <mxCell id="1ETvutR-QdiNxrJq1_Db-2" value="" style="html=1;points=[[0,0,0,0,5],[0,1,0,0,-5],[1,0,0,0,5],[1,1,0,0,-5]];perimeter=orthogonalPerimeter;outlineConnect=0;targetShapes=umlLifeline;portConstraint=eastwest;newEdgeStyle={&quot;curved&quot;:0,&quot;rounded&quot;:0};fillColor=#d5e8d4;strokeColor=#82b366;" vertex="1" parent="1ETvutR-QdiNxrJq1_Db-1">
          <mxGeometry x="5" y="74" width="10" height="246" as="geometry" />
        </mxCell>
        <mxCell id="1ETvutR-QdiNxrJq1_Db-3" value=":GUI" style="shape=umlLifeline;perimeter=lifelinePerimeter;whiteSpace=wrap;html=1;container=1;dropTarget=0;collapsible=0;recursiveResize=0;outlineConnect=0;portConstraint=eastwest;newEdgeStyle={&quot;curved&quot;:0,&quot;rounded&quot;:0};fillColor=#d5e8d4;strokeColor=#82b366;" vertex="1" parent="1">
          <mxGeometry x="540" y="280" width="100" height="350" as="geometry" />
        </mxCell>
        <mxCell id="1ETvutR-QdiNxrJq1_Db-4" value="" style="html=1;points=[[0,0,0,0,5],[0,1,0,0,-5],[1,0,0,0,5],[1,1,0,0,-5]];perimeter=orthogonalPerimeter;outlineConnect=0;targetShapes=umlLifeline;portConstraint=eastwest;newEdgeStyle={&quot;curved&quot;:0,&quot;rounded&quot;:0};fillColor=#d5e8d4;strokeColor=#82b366;" vertex="1" parent="1ETvutR-QdiNxrJq1_Db-3">
          <mxGeometry x="45" y="75" width="10" height="245" as="geometry" />
        </mxCell>
        <mxCell id="1ETvutR-QdiNxrJq1_Db-7" value="&lt;font style=&quot;font-size: 12px;&quot;&gt;Выбрать &lt;br&gt;&quot;Выйти&quot;&lt;/font&gt;" style="text;html=1;align=center;verticalAlign=middle;resizable=0;points=[];autosize=1;strokeColor=none;fillColor=none;" vertex="1" parent="1">
          <mxGeometry x="470" y="335" width="70" height="40" as="geometry" />
        </mxCell>
        <mxCell id="1ETvutR-QdiNxrJq1_Db-8" value="" style="endArrow=open;html=1;rounded=0;endFill=0;" edge="1" parent="1">
          <mxGeometry width="50" height="50" relative="1" as="geometry">
            <mxPoint x="415" y="372" as="sourcePoint" />
            <mxPoint x="585" y="372" as="targetPoint" />
          </mxGeometry>
        </mxCell>
        <mxCell id="1ETvutR-QdiNxrJq1_Db-10" value=":JWT" style="shape=umlLifeline;perimeter=lifelinePerimeter;whiteSpace=wrap;html=1;container=1;dropTarget=0;collapsible=0;recursiveResize=0;outlineConnect=0;portConstraint=eastwest;newEdgeStyle={&quot;curved&quot;:0,&quot;rounded&quot;:0};fillColor=#d5e8d4;strokeColor=#82b366;" vertex="1" parent="1">
          <mxGeometry x="890" y="279" width="100" height="351" as="geometry" />
        </mxCell>
        <mxCell id="1ETvutR-QdiNxrJq1_Db-11" value=":Обработчик команд" style="shape=umlLifeline;perimeter=lifelinePerimeter;whiteSpace=wrap;html=1;container=1;dropTarget=0;collapsible=0;recursiveResize=0;outlineConnect=0;portConstraint=eastwest;newEdgeStyle={&quot;curved&quot;:0,&quot;rounded&quot;:0};fillColor=#d5e8d4;strokeColor=#82b366;" vertex="1" parent="1">
          <mxGeometry x="720" y="279" width="100" height="351" as="geometry" />
        </mxCell>
        <mxCell id="1ETvutR-QdiNxrJq1_Db-12" value="" style="endArrow=block;html=1;rounded=0;endFill=1;" edge="1" parent="1" target="1ETvutR-QdiNxrJq1_Db-53">
          <mxGeometry width="50" height="50" relative="1" as="geometry">
            <mxPoint x="595" y="393.0000000000002" as="sourcePoint" />
            <mxPoint x="915" y="393.0000000000002" as="targetPoint" />
          </mxGeometry>
        </mxCell>
        <mxCell id="1ETvutR-QdiNxrJq1_Db-13" value="&lt;font style=&quot;font-size: 12px;&quot;&gt;Запрос на сервер&lt;/font&gt;" style="text;html=1;align=center;verticalAlign=middle;resizable=0;points=[];autosize=1;strokeColor=none;fillColor=none;" vertex="1" parent="1">
          <mxGeometry x="620" y="360" width="120" height="30" as="geometry" />
        </mxCell>
        <mxCell id="1ETvutR-QdiNxrJq1_Db-14" value="" style="endArrow=block;html=1;rounded=0;endFill=1;" edge="1" parent="1">
          <mxGeometry width="50" height="50" relative="1" as="geometry">
            <mxPoint x="775" y="400" as="sourcePoint" />
            <mxPoint x="935" y="400" as="targetPoint" />
          </mxGeometry>
        </mxCell>
        <mxCell id="1ETvutR-QdiNxrJq1_Db-15" value="Удалить токен" style="text;html=1;align=center;verticalAlign=middle;resizable=0;points=[];autosize=1;strokeColor=none;fillColor=none;" vertex="1" parent="1">
          <mxGeometry x="805" y="370" width="100" height="30" as="geometry" />
        </mxCell>
        <mxCell id="1ETvutR-QdiNxrJq1_Db-21" value="" style="endArrow=open;html=1;rounded=0;endFill=0;dashed=1;" edge="1" parent="1">
          <mxGeometry width="50" height="50" relative="1" as="geometry">
            <mxPoint x="935" y="444" as="sourcePoint" />
            <mxPoint x="775" y="444" as="targetPoint" />
          </mxGeometry>
        </mxCell>
        <mxCell id="1ETvutR-QdiNxrJq1_Db-22" value="&lt;font style=&quot;font-size: 12px;&quot;&gt;Ответ&lt;/font&gt;" style="text;html=1;align=center;verticalAlign=middle;resizable=0;points=[];autosize=1;strokeColor=none;fillColor=none;" vertex="1" parent="1">
          <mxGeometry x="835" y="414" width="60" height="30" as="geometry" />
        </mxCell>
        <mxCell id="1ETvutR-QdiNxrJq1_Db-37" value="&amp;nbsp;sd Выход" style="shape=umlFrame;whiteSpace=wrap;html=1;pointerEvents=0;width=140;height=20;align=left;" vertex="1" parent="1">
          <mxGeometry x="305" y="240" width="750" height="410" as="geometry" />
        </mxCell>
        <mxCell id="1ETvutR-QdiNxrJq1_Db-39" value="" style="html=1;points=[[0,0,0,0,5],[0,1,0,0,-5],[1,0,0,0,5],[1,1,0,0,-5]];perimeter=orthogonalPerimeter;outlineConnect=0;targetShapes=umlLifeline;portConstraint=eastwest;newEdgeStyle={&quot;curved&quot;:0,&quot;rounded&quot;:0};fillColor=#d5e8d4;strokeColor=#82b366;" vertex="1" parent="1">
          <mxGeometry x="935" y="390" width="10" height="60" as="geometry" />
        </mxCell>
        <mxCell id="1ETvutR-QdiNxrJq1_Db-44" value="&lt;div style=&quot;font-size: 12px;&quot;&gt;Переход на страницу &lt;br&gt;входа&lt;/div&gt;" style="html=1;align=center;spacingLeft=2;endArrow=block;rounded=0;edgeStyle=orthogonalEdgeStyle;curved=0;rounded=0;" edge="1" parent="1" target="1ETvutR-QdiNxrJq1_Db-45">
          <mxGeometry x="-0.0588" y="75" relative="1" as="geometry">
            <mxPoint x="595" y="500" as="sourcePoint" />
            <Array as="points">
              <mxPoint x="625" y="530" />
            </Array>
            <mxPoint as="offset" />
          </mxGeometry>
        </mxCell>
        <mxCell id="1ETvutR-QdiNxrJq1_Db-45" value="" style="html=1;points=[[0,0,0,0,5],[0,1,0,0,-5],[1,0,0,0,5],[1,1,0,0,-5]];perimeter=orthogonalPerimeter;outlineConnect=0;targetShapes=umlLifeline;portConstraint=eastwest;newEdgeStyle={&quot;curved&quot;:0,&quot;rounded&quot;:0};fillColor=#d5e8d4;strokeColor=#82b366;" vertex="1" parent="1">
          <mxGeometry x="590" y="520" width="10" height="40" as="geometry" />
        </mxCell>
        <mxCell id="1ETvutR-QdiNxrJq1_Db-53" value="" style="html=1;points=[[0,0,0,0,5],[0,1,0,0,-5],[1,0,0,0,5],[1,1,0,0,-5]];perimeter=orthogonalPerimeter;outlineConnect=0;targetShapes=umlLifeline;portConstraint=eastwest;newEdgeStyle={&quot;curved&quot;:0,&quot;rounded&quot;:0};fillColor=#d5e8d4;strokeColor=#82b366;" vertex="1" parent="1">
          <mxGeometry x="765" y="390" width="10" height="80" as="geometry" />
        </mxCell>
        <mxCell id="1ETvutR-QdiNxrJq1_Db-59" value="" style="endArrow=open;html=1;rounded=0;endFill=0;dashed=1;" edge="1" parent="1">
          <mxGeometry width="50" height="50" relative="1" as="geometry">
            <mxPoint x="765.0000000000002" y="466.9999999999999" as="sourcePoint" />
            <mxPoint x="595.0000000000002" y="466.9999999999999" as="targetPoint" />
          </mxGeometry>
        </mxCell>
        <mxCell id="1ETvutR-QdiNxrJq1_Db-60" value="&lt;font style=&quot;font-size: 12px;&quot;&gt;Ответ&lt;/font&gt;" style="text;html=1;align=center;verticalAlign=middle;resizable=0;points=[];autosize=1;strokeColor=none;fillColor=none;" vertex="1" parent="1">
          <mxGeometry x="650" y="440" width="60" height="30" as="geometry" />
        </mxCell>
      </root>
    </mxGraphModel>
  </diagram>
</mxfile>
